<?xml version="1.0" encoding="UTF-8" standalone="no"?>
<svg
   viewBox="0 0 8268 11692"
   version="1.1"
   id="svg1"
   sodipodi:docname="bass_clef-dark.svg"
   inkscape:version="1.4.2 (ebf0e940, 2025-05-08)"
   xmlns:inkscape="http://www.inkscape.org/namespaces/inkscape"
   xmlns:sodipodi="http://sodipodi.sourceforge.net/DTD/sodipodi-0.dtd"
   xmlns="http://www.w3.org/2000/svg"
   xmlns:svg="http://www.w3.org/2000/svg">
  <defs
     id="defs1" />
  <sodipodi:namedview
     id="namedview1"
     pagecolor="#ffffff"
     bordercolor="#000000"
     borderopacity="0.25"
     inkscape:showpageshadow="2"
     inkscape:pageopacity="0.0"
     inkscape:pagecheckerboard="0"
     inkscape:deskcolor="#d1d1d1"
     inkscape:zoom="0.050962005"
     inkscape:cx="2619.5987"
     inkscape:cy="6181.0755"
     inkscape:window-width="1512"
     inkscape:window-height="821"
     inkscape:window-x="0"
     inkscape:window-y="38"
     inkscape:window-maximized="1"
     inkscape:current-layer="svg1" />
  <path
     class="fil1 str1"
     d="M 355.00532,10063.712 C 1079.9857,9574.1824 1739.1614,9125.1144 2087.8862,8868.9122 c 348.7247,-251.6271 715.8033,-567.3048 1092.0589,-942.458 376.2556,-375.1532 692.8609,-800.6318 949.816,-1271.8608 201.8932,-347.703 376.2556,-750.3064 518.4986,-1207.8103 142.2429,-452.9289 215.6587,-892.1326 229.4241,-1308.4612 0,-388.8783 -50.4733,-759.4565 -156.0084,-1107.1594 -100.9466,-352.278 -275.309,-640.5055 -523.0871,-873.8325 -247.778,-228.7519 -568.9719,-343.1279 -968.1699,-343.1279 -385.4326,0 -747.9227,77.7757 -1087.4705,228.752 -334.9592,155.5513 -573.5603,402.6034 -706.6263,750.3063 0,32.0253 -18.354,73.2007 -45.8849,132.6762 9.177,73.2006 45.8849,128.1011 114.7121,169.2764 68.8273,41.1754 128.4775,59.4755 183.5393,59.4755 27.5309,0 105.5351,-13.7251 224.8357,-41.1753 123.889,-27.4503 224.8357,-45.7504 307.4284,-45.7504 243.1896,0 458.8483,86.9257 656.153,256.2022 192.7163,169.2764 289.0745,375.1532 289.0745,617.6302 0,173.8515 -50.4734,338.5529 -146.8315,489.5292 -96.3581,150.9763 -229.4241,274.5023 -399.198,361.4281 -169.7739,91.5008 -357.9017,132.6761 -559.7949,132.6761 -367.0787,0 -679.0955,-109.8009 -936.0506,-333.9778 -252.36659,-228.752 -380.84412,-516.9794 -380.84412,-878.4075 0,-462.079 142.24298,-860.1073 422.14052,-1198.6602 284.4859,-338.5529 642.3876,-590.1801 1082.882,-759.4565 435.9058,-173.8514 876.4002,-256.2021 1326.0715,-256.2021 490.9677,0 958.993,123.526 1394.8989,375.1532 440.4943,247.052 784.6306,590.1799 1041.5856,1015.6586 256.9551,430.0536 390.0211,887.5575 390.0211,1381.6617 0,878.4075 -293.6629,1692.7645 -880.9888,2447.6459 C 4932.7456,7473.5253 4207.7653,8127.7559 3340.542,8685.9107 2762.3932,9065.6389 1708.6078,9656.5331 419.24408,10301.614 Z M 6706.143,3485.6364 c 0,-164.7014 59.6503,-301.9526 178.9509,-411.7535 114.712,-114.376 256.955,-169.2764 426.7289,-169.2764 146.8314,0 284.4859,64.0505 408.375,187.5766 123.889,118.951 183.5393,260.7772 183.5393,416.3285 0,164.7014 -64.2388,306.5276 -183.5393,420.9036 -128.4776,109.8009 -270.7205,164.7014 -431.3174,164.7014 -169.7739,0 -307.4284,-54.9005 -417.552,-178.4265 -110.1236,-118.951 -165.1854,-260.7772 -165.1854,-430.0537 z m 0,1619.3205 c 0,-164.7014 59.6503,-306.5277 169.7739,-416.3286 114.7121,-114.376 256.955,-169.2764 435.9059,-169.2764 146.8314,0 279.8974,59.4755 408.375,183.0015 119.3005,123.5261 183.5393,256.2022 183.5393,402.6035 0,178.4265 -59.6503,320.2527 -174.3624,434.6287 -119.3005,114.3759 -256.955,173.8514 -417.5519,173.8514 -178.9509,0 -321.1938,-59.4755 -435.9059,-169.2764 -110.1236,-109.8009 -169.7739,-256.2022 -169.7739,-439.2037 z"
     id="path19"
     style="fill:#1e2939;stroke:#1e2939;stroke-width:13.7453"
     sodipodi:nodetypes="ccscccccscccsscscsscscsccsccsscccscscscscsssscscscs" />
</svg>
